<svg width="80" height="40" viewBox="0 0 80 40" fill="none" xmlns="http://www.w3.org/2000/svg">
<g clip-path="url(#clip0_14_61)">
<path d="M40.2899 0.0320718H40.2898C29.2038 0.708094 20.9117 10.0518 21.9988 20.6408C22.0028 20.6795 22.0068 20.7182 22.0108 20.7569C22.0112 20.7602 22.0125 20.7633 22.0145 20.766C22.0166 20.7687 22.0194 20.7708 22.0226 20.7721C31.3059 24.465 40.6132 24.729 49.9056 23.2943C54.9888 22.5094 58.4327 17.8571 57.4506 13.0159C57.4352 12.9402 57.4203 12.8647 57.4059 12.7891C55.9145 4.99896 48.5419 -0.471133 40.2899 0.0320718Z" fill="#164212"/>
<path d="M45.1039 11.6187C45.1028 11.8712 45.1021 12.1238 45.1018 12.3763C45.0997 12.1272 45.0997 11.8746 45.0997 11.6187C45.0997 11.5478 45.0997 11.4758 45.1007 11.4027C45.1018 11.1524 45.1028 10.8998 45.106 10.6439C45.1049 10.8964 45.1049 11.149 45.1039 11.4027V11.6187Z" fill="black"/>
<path d="M40.3548 33.2562C38.6415 33.2459 36.4939 33.159 33.8178 33.0516C31.7836 32.9705 29.444 32.8768 26.7559 32.7968C1.97303 33.087 6.24549 37.1553 5.80763 13.0072C5.83149 13.2826 5.85376 13.561 5.87444 13.8425C6.60223 23.8133 15.3225 31.4791 25.7573 31.4094C28.4418 31.3911 31.1262 31.4235 33.8107 31.5066C35.4643 31.5557 37.1159 31.6254 38.7656 31.7157C39.5172 31.7557 40.2685 31.8002 41.0193 31.8494C41.0297 31.8496 41.04 31.8492 41.0504 31.8482C42.1535 31.8181 43.2005 31.3754 43.9671 30.615C44.7338 29.8546 45.1592 28.837 45.1522 27.7799C45.1259 24.8727 45.1092 21.9639 45.1021 19.0536C45.0997 18.1668 45.0985 17.2797 45.0985 16.3921C45.0973 15.0527 45.0985 13.7142 45.1021 12.3763C45.1104 13.7843 45.1522 15.0985 45.2154 16.3269C45.2655 17.2835 45.3276 18.1878 45.4016 19.0399C46.436 31.2631 49.303 33.3099 40.3548 33.2562Z" fill="black"/>
<path d="M30.3022 18.0312C27.8009 17.6066 25.8591 18.5967 24.2341 20.342C26.323 20.1711 28.926 19.2739 30.3022 18.0312Z" fill="black"/>
<path d="M5.21613 13.1982C17.7124 11.7614 30.8318 12.4117 43.1656 10.1802C35.7897 9.8178 26.7335 8.66537 18.7363 8.60187C14.457 11.6562 10.026 11.719 5.21613 13.1982Z" fill="black"/>
<path d="M51.9623 2.34272C51.948 5.07969 51.8681 7.11956 51.4529 8.58232C51.3246 9.06819 51.1216 9.53306 50.8504 9.96167C49.921 11.3684 48.2196 11.8267 45.1045 11.6187H45.0997C44.1667 11.5558 43.1072 11.4347 41.9046 11.2599C43.1001 11.3501 44.1631 11.4027 45.1009 11.4027H45.1045C47.5455 11.4016 49.1443 11.0359 50.0618 10.0005C50.4086 9.59734 50.6587 9.12605 50.7943 8.62003C51.1582 7.37326 51.1212 5.62365 50.7681 3.21467C40.2271 2.71353 29.665 2.78221 19.1321 3.42036C13.3981 4.55515 5.33873 2.78955 0.838391 6.43617C0.828846 6.47046 0.820494 6.50474 0.812142 6.54017C0.412457 8.17664 0.485237 11.317 1.93007 12.3707C0.20844 11.4496 -0.623146 8.6646 0.540118 6.43389C1.4934 4.60543 3.7889 3.15067 8.03273 3.40094C22.4942 1.27765 37.3696 1.01138 51.9623 2.34272Z" fill="black"/>
<path d="M1.93005 12.3706C2.24392 12.5391 2.59144 12.6423 2.94982 12.6732C3.30819 12.7041 3.66935 12.6621 4.00961 12.55C3.11957 12.854 2.4395 12.742 1.93005 12.3706Z" fill="black"/>
<path d="M73.1415 18.3611C73.1405 18.6136 73.1398 18.8662 73.1394 19.1187C73.1373 18.8696 73.1373 18.6171 73.1373 18.3611C73.1373 18.2902 73.1373 18.2182 73.1384 18.1451C73.1394 17.8948 73.1405 17.6423 73.1436 17.3863C73.1426 17.6388 73.1426 17.8914 73.1415 18.1451V18.3611Z" fill="black"/>
<path d="M54.7935 39.5392C36.1944 39.7575 33.9598 42.1025 33.8178 33.0516C33.8106 32.5693 33.8083 32.0543 33.8106 31.5066C35.4643 31.5557 37.1159 31.6254 38.7656 31.7157C40.6435 33.7567 42.9572 35.3875 45.5501 36.4979C48.1431 37.6083 50.9547 38.1723 53.7949 38.1519C58.887 38.1176 63.9744 38.2642 69.0569 38.5918C69.0673 38.592 69.0777 38.5916 69.088 38.5907C70.1911 38.5605 71.2381 38.1178 72.0048 37.3575C72.7714 36.5971 73.1968 35.5794 73.1898 34.5224C73.1421 29.3867 73.1254 24.2522 73.1397 19.1188C73.2912 42.5836 82.4291 40.3631 54.7935 39.5392Z" fill="black"/>
<path d="M58.3398 24.7736C55.8386 24.3491 53.8967 25.3391 52.2718 27.0844C54.3606 26.9136 56.9637 26.0163 58.3398 24.7736Z" fill="black"/>
<path d="M71.2033 16.9224C62.8183 18.44 54.0705 18.6251 45.4016 19.0399C45.3013 19.0445 45.2023 19.0491 45.1021 19.0537C45.0997 18.1669 45.0985 17.2797 45.0985 16.3921C45.1379 16.3715 45.1761 16.3498 45.2154 16.327C45.7546 16.029 46.2749 15.7008 46.7736 15.3442C54.7709 15.4082 63.8276 16.5601 71.2033 16.9224Z" fill="black"/>
<path d="M80 9.0851C79.9594 16.4732 79.4488 18.7828 73.1421 18.3611H73.1373C72.2043 18.2982 71.1449 18.1771 69.9422 18.0022C71.1377 18.0925 72.2008 18.1451 73.1385 18.1451H73.1421C78.412 18.1428 79.7566 16.4423 78.8057 9.95704C69.4996 9.52164 60.1637 9.51136 50.8504 9.96162C50.5879 9.97304 50.3242 9.98676 50.0618 10.0005C50.4086 9.59729 50.6587 9.126 50.7943 8.61998C51.0138 8.60741 51.2334 8.5937 51.4529 8.58227C60.9679 8.04207 70.5122 8.21018 80 9.0851Z" fill="black"/>
</g>
<defs>
<clipPath id="clip0_14_61">
<rect width="80" height="40" fill="white"/>
</clipPath>
</defs>
</svg>
